<svg xmlns="http://www.w3.org/2000/svg" viewBox="0 0 512 512">
  <path d="M290,172.2l-21.09,23.59-54.31-95.1L35.53,410.85H229.07a29.54,29.54,0,0,0,29.54,29.54H35.53A29.54,29.54,0,0,1,10,396.08L189.05,85.92a29.54,29.54,0,0,1,51.17,0Z" style="fill: #00c58e"/>
  <path d="M502,425.62a29.52,29.52,0,0,1-25.57,14.77H388.72a29.53,29.53,0,0,0,29.53-29.54H476.4l-143.78-249-6.35,11.53-33.75-1.15L307,147.05a29.54,29.54,0,0,1,51.17,0L502,396.08A29.52,29.52,0,0,1,502,425.62Z" style="fill: #108775"/>
  <path d="M459.21,310.91l-20-20a8.45,8.45,0,0,1-2.47-6V260.39c0-22.65-2.35-30.87-6.77-39.15A46.17,46.17,0,0,0,410.81,202c-8.26-4.43-16.46-6.78-39.06-6.78H339.42a1.7,1.7,0,0,1-1.2-2.89l20-20a8.45,8.45,0,0,1,6-2.49h11.22c30.14,0,41.07,3.14,52.09,9a61.49,61.49,0,0,1,25.55,25.61c5.89,11,9,22,9,52.19v53a1.69,1.69,0,0,1-2.89,1.19ZM417,268.72l-27.25-26.1a17.34,17.34,0,0,0-12.13-5H297.15a1.69,1.69,0,0,1-1.69-1.69,1.73,1.73,0,0,1,.49-1.2l20-20a8.47,8.47,0,0,1,6-2.49h64.1a33.85,33.85,0,0,1,33.8,33.88V267.5a1.69,1.69,0,0,1-1.69,1.69A1.72,1.72,0,0,1,417,268.72Z" style="fill: #df5436"/>
  <path d="M321.32,438l20-20a8.49,8.49,0,0,1,6-2.49h24.45c22.6,0,30.8-2.36,39.06-6.78A46.17,46.17,0,0,0,430,389.45c4.42-8.28,6.77-16.5,6.77-39.15V317.91a1.69,1.69,0,0,1,1.69-1.69,1.73,1.73,0,0,1,1.2.49l20,20a8.49,8.49,0,0,1,2.47,6V354c0,30.2-3.14,41.15-9,52.19a61.49,61.49,0,0,1-25.55,25.61c-11,5.91-21.95,9.05-52.09,9.05H322.52a1.69,1.69,0,0,1-1.69-1.69A1.73,1.73,0,0,1,321.32,438Zm42.1-42.3,26.06-27.32a17.42,17.42,0,0,0,5-12.16V275.56a1.69,1.69,0,0,1,2.89-1.19l20,20a8.49,8.49,0,0,1,2.47,6v64.25a33.84,33.84,0,0,1-33.8,33.88h-21.4a1.7,1.7,0,0,1-1.23-2.86Z" style="fill: #f4c942"/>
  <path d="M194.57,299.77l20,20a8.49,8.49,0,0,1,2.47,6V350.3c0,22.65,2.35,30.86,6.77,39.15A46.09,46.09,0,0,0,243,408.65c8.26,4.43,16.46,6.79,39.06,6.79h32.33a1.69,1.69,0,0,1,1.69,1.69,1.73,1.73,0,0,1-.49,1.2l-20,20a8.49,8.49,0,0,1-6,2.49H278.34c-30.13,0-41.06-3.15-52.08-9.05a61.55,61.55,0,0,1-25.55-25.61c-5.89-11-9-22-9-52.2V301a1.69,1.69,0,0,1,1.69-1.69A1.73,1.73,0,0,1,194.57,299.77ZM236.8,342l27.25,26.1a16.75,16.75,0,0,0,6.16,3.94,16.93,16.93,0,0,0,6,1.09h80.44a1.7,1.7,0,0,1,1.2,2.89l-20,20a8.46,8.46,0,0,1-6,2.48H267.74a33.84,33.84,0,0,1-33.81-33.87V343.19A1.7,1.7,0,0,1,236.8,342Z" style="fill: #7b8fea"/>
  <path d="M332.46,172.73l-20,20a8.49,8.49,0,0,1-6,2.49H282c-22.6,0-30.8,2.35-39.06,6.78a46.17,46.17,0,0,0-19.17,19.21c-4.42,8.28-6.77,16.5-6.77,39.15v32.39a1.69,1.69,0,0,1-1.69,1.69,1.73,1.73,0,0,1-1.2-.49l-20-20a8.49,8.49,0,0,1-2.47-6V256.69c0-30.2,3.14-41.15,9-52.19a61.49,61.49,0,0,1,25.55-25.61c11-5.91,22-9,52.08-9h52.92a1.69,1.69,0,0,1,1.69,1.69A1.73,1.73,0,0,1,332.46,172.73ZM290.36,215,264.3,242.37a17.35,17.35,0,0,0-5,12.16v80.61a1.69,1.69,0,0,1-1.7,1.69,1.73,1.73,0,0,1-1.2-.49l-20-20a8.49,8.49,0,0,1-2.47-6V246.06a33.85,33.85,0,0,1,33.81-33.88h21.39a1.7,1.7,0,0,1,1.7,1.7A1.68,1.68,0,0,1,290.36,215Z" style="fill: #d97ee8"/>
</svg>
